<?xml version="1.0"?>
<svg width="64" height="64" xmlns="http://www.w3.org/2000/svg" xmlns:svg="http://www.w3.org/2000/svg">
 <g class="layer">
  <title>Layer 1</title>
  <g id="svg_1">
   <g id="svg_2">
    <path d="m45.892,16.073l-3.175,1.445c-0.203,0.094 -0.39,0.222 -0.55,0.382l-5.174,5.176l-17.815,-2.136a1.059,1.059 0 0 0 -0.875,0.303l-0.992,0.992a1.06,1.06 0 0 0 0.316,1.717l12.767,5.723l-3.665,3.666l-6.403,0c-0.281,0 -0.55,0.113 -0.75,0.31l-0.535,0.537a1.06,1.06 0 0 0 0.331,1.724l5.402,2.314l2.314,5.402a1.06,1.06 0 0 0 1.724,0.331l0.537,-0.538c0.2,-0.2 0.31,-0.469 0.31,-0.75l0,-6.403l3.666,-3.665l5.723,12.77a1.06,1.06 0 0 0 1.717,0.316l0.992,-0.992c0.231,-0.231 0.34,-0.553 0.303,-0.875l-2.14,-17.815l5.177,-5.177c0.16,-0.16 0.288,-0.344 0.382,-0.55l1.445,-3.175c0.303,-0.653 -0.373,-1.332 -1.032,-1.032z" fill="#fff" id="svg_3"/>
   </g>
  </g>
 </g>
</svg>